<svg width="17" height="17" viewBox="0 0 17 17" fill="none" xmlns="http://www.w3.org/2000/svg">
<path d="M8.50016 14.8333C10.1799 14.8333 11.7908 14.1661 12.9785 12.9783C14.1662 11.7906 14.8335 10.1797 14.8335 8.5C14.8335 6.82029 14.1662 5.20938 12.9785 4.02165C11.7908 2.83392 10.1799 2.16666 8.50016 2.16666C6.82046 2.16666 5.20955 2.83392 4.02182 4.02165C2.83409 5.20938 2.16683 6.82029 2.16683 8.5C2.16683 10.1797 2.83409 11.7906 4.02182 12.9783C5.20955 14.1661 6.82046 14.8333 8.50016 14.8333ZM8.50016 16.4167C4.12779 16.4167 0.583496 12.8724 0.583496 8.5C0.583496 4.12762 4.12779 0.583328 8.50016 0.583328C12.8725 0.583328 16.4168 4.12762 16.4168 8.5C16.4168 12.8724 12.8725 16.4167 8.50016 16.4167ZM6.03808 9.42625L4.0605 8.80954C3.633 8.67891 3.63062 8.38441 4.15629 8.17304L11.8616 5.19637C12.3089 5.01429 12.5622 5.24466 12.4173 5.82179L11.1055 12.0126C11.0137 12.4536 10.7485 12.5589 10.3804 12.3554L8.36083 10.8607L7.41954 11.7696C7.32296 11.863 7.24458 11.943 7.09575 11.9627C6.9477 11.9833 6.82579 11.939 6.73633 11.6936L6.04758 9.4207L6.03808 9.42625Z" fill="#E0BEA2"/>
</svg>
